<svg width="159" height="72" viewBox="0 0 159 72" fill="none" xmlns="http://www.w3.org/2000/svg">
<path d="M53.24 8.4H64.552L67.632 11.48V24.92L64.552 28H53.24V8.4ZM63.6 26.096L65.504 24.22V12.18L63.6 10.304H55.368V26.096H63.6ZM71.8338 8.4H84.4898V10.304H73.9618V17.192H83.6778V19.096H73.9618V26.096H84.4898V28H71.8338V8.4ZM93.4226 8.4H95.7186L102.691 28H100.479L98.6586 22.708H90.4826L88.6626 28H86.4506L93.4226 8.4ZM98.0426 20.86L94.5986 10.864H94.5426L91.1266 20.86H98.0426ZM105.494 8.4H107.622V26.124H117.59V28H105.494V8.4ZM53.24 44.4H65.616V46.304H55.368V53.36H64.272V55.264H55.368V64H53.24V44.4ZM68.6892 44.4H70.8172V62.124H80.7852V64H68.6892V44.4ZM83.0381 60.92V47.48L86.1181 44.4H94.9661L98.0461 47.48V60.92L94.9661 64H86.1181L83.0381 60.92ZM94.0141 62.096L95.9181 60.22V48.18L94.0141 46.304H87.0701L85.1661 48.18V60.22L87.0701 62.096H94.0141ZM100.847 44.4H103.003L106.139 60.976H106.195L110.899 44.4H112.971L117.507 60.976H117.563L120.615 44.4H122.771L118.823 64H116.527L111.963 47.424H111.907L107.091 64H104.795L100.847 44.4ZM126.138 44.4H138.794V46.304H128.266V53.192H137.982V55.096H128.266V62.096H138.794V64H126.138V44.4ZM156.323 58.008V64H154.195V58.596L151.507 55.768H144.563V64H142.435V44.4H153.635L156.211 46.976V53.164L153.943 55.432L156.323 58.008ZM144.563 53.92H152.711L154.111 52.548V47.62L152.711 46.248H144.563V53.92Z" fill="white"/>
<g clip-path="url(#clip0_865_3346)">
<path d="M58.5 33C58.5 40.8877 55.543 48.05 52.5659 53.258C51.0792 55.8587 49.5924 57.9634 48.4782 59.4168C47.9212 60.1433 47.4578 60.7066 47.1345 61.0871C47.0865 61.1436 47.0417 61.1961 47 61.2445C46.9584 61.1961 46.9135 61.1436 46.8655 61.0871C46.5422 60.7066 46.0788 60.1433 45.5218 59.4168C44.4076 57.9634 42.9208 55.8587 41.4341 53.258C38.457 48.05 35.5 40.8877 35.5 33C35.5 25.1123 38.457 17.95 41.4341 12.742C42.9208 10.1413 44.4076 8.0366 45.5218 6.58317C46.0788 5.85665 46.5422 5.29341 46.8655 4.91287C46.9135 4.85636 46.9583 4.80389 47 4.75552C47.0416 4.80389 47.0865 4.85636 47.1345 4.91287C47.4578 5.29341 47.9212 5.85665 48.4782 6.58317C49.5924 8.0366 51.0792 10.1413 52.5659 12.742C55.543 17.95 58.5 25.1123 58.5 33Z" stroke="#86FF68"/>
<path d="M46.5717 31.6439C49.4849 38.8543 49.5169 46.4562 48.8099 52.2774C48.4568 55.1846 47.9206 57.6384 47.473 59.364C47.2492 60.2266 47.0478 60.9066 46.9029 61.3695C46.8855 61.425 46.8689 61.4774 46.8532 61.5265C46.8078 61.5021 46.7595 61.4759 46.7084 61.4481C46.2825 61.2158 45.6653 60.8665 44.9052 60.4015C43.3845 59.4711 41.2942 58.0785 39.0207 56.2325C34.4684 52.5362 29.2107 47.0456 26.2975 39.8353C23.3843 32.6249 23.3523 25.023 24.0593 19.2018C24.4124 16.2946 24.9487 13.8408 25.3963 12.1152C25.62 11.2526 25.8214 10.5726 25.9664 10.1097C25.9838 10.0542 26.0003 10.0018 26.016 9.95264C26.0615 9.97711 26.1098 10.0033 26.1608 10.0311C26.5867 10.2634 27.2039 10.6127 27.9641 11.0777C29.4847 12.0081 31.575 13.4007 33.8485 15.2467C38.4008 18.943 43.6586 24.4336 46.5717 31.6439Z" stroke="#86FF68"/>
<path d="M67.985 39.8355C65.0718 47.0459 59.8141 52.5365 55.2618 56.2328C52.9883 58.0788 50.898 59.4714 49.3773 60.4017C48.6172 60.8668 48 61.216 47.5741 61.4483C47.523 61.4762 47.4747 61.5023 47.4293 61.5268C47.4136 61.4776 47.397 61.4253 47.3796 61.3698C47.2347 60.9068 47.0333 60.2268 46.8095 59.3643C46.3619 57.6387 45.8257 55.1849 45.4726 52.2777C44.7656 46.4565 44.7976 38.8545 47.7108 31.6442C50.6239 24.4338 55.8817 18.9432 60.434 15.2469C62.7075 13.4009 64.7978 12.0084 66.3185 11.078C67.0786 10.6129 67.6958 10.2637 68.1217 10.0314C68.1727 10.0035 68.221 9.97738 68.2665 9.9529C68.2822 10.0021 68.2988 10.0544 68.3161 10.1099C68.4611 10.5729 68.6625 11.2529 68.8863 12.1154C69.3338 13.841 69.8701 16.2948 70.2232 19.202C70.9302 25.0232 70.8982 32.6252 67.985 39.8355Z" stroke="#86FF68"/>
<path d="M76.065 52.2439C70.1077 57.2426 62.8877 59.6222 57.133 60.7486C54.259 61.3112 51.7595 61.5595 49.9801 61.667C49.0906 61.7208 48.3817 61.7394 47.8965 61.7445C47.8384 61.7452 47.7835 61.7456 47.7319 61.7459C47.7411 61.6951 47.7511 61.641 47.7618 61.5839C47.8511 61.1071 47.9925 60.4121 48.1999 59.5455C48.6148 57.8118 49.2933 55.3934 50.3464 52.6608C52.4551 47.189 56.0522 40.4919 62.0094 35.4932C67.9667 30.4945 75.1867 28.1149 80.9414 26.9885C83.8154 26.4259 86.3149 26.1777 88.0943 26.0701C88.9838 26.0163 89.6927 25.9978 90.1778 25.9926C90.236 25.992 90.2909 25.9915 90.3425 25.9913C90.3333 26.0421 90.3233 26.0961 90.3126 26.1532C90.2233 26.6301 90.0819 27.325 89.8745 28.1916C89.4596 29.9254 88.7811 32.3437 87.728 35.0764C85.6193 40.5481 82.0222 47.2452 76.065 52.2439Z" stroke="#86FF68"/>
<path d="M32.2729 35.4935C38.2301 40.4923 41.8272 47.1893 43.9359 52.6611C44.989 55.3937 45.6675 57.8121 46.0824 59.5458C46.2898 60.4125 46.4312 61.1074 46.5205 61.5842C46.5312 61.6414 46.5412 61.6954 46.5504 61.7462C46.4988 61.7459 46.4439 61.7455 46.3857 61.7449C45.9006 61.7397 45.1917 61.7211 44.3022 61.6673C42.5228 61.5598 40.0233 61.3115 37.1493 60.749C31.3946 59.6225 24.1746 57.243 18.2173 52.2442C12.2601 47.2455 8.66295 40.5484 6.5543 35.0767C5.50122 32.3441 4.82273 29.9257 4.40781 28.192C4.2004 27.3253 4.059 26.6304 3.96966 26.1536C3.95896 26.0964 3.949 26.0424 3.93977 25.9916C3.99139 25.9919 4.04631 25.9923 4.10445 25.9929C4.58956 25.9981 5.29849 26.0167 6.18798 26.0704C7.96742 26.178 10.4669 26.4262 13.3409 26.9888C19.0956 28.1153 26.3156 30.4948 32.2729 35.4935Z" stroke="#86FF68"/>
<path d="M26 55.5C31.9894 55.5 37.4231 57.103 41.3674 58.7129C43.3377 59.5171 44.9315 60.3211 46.0311 60.923C46.4401 61.1469 46.7805 61.3427 47.0463 61.5C46.7805 61.6573 46.4401 61.8531 46.0311 62.077C44.9315 62.6789 43.3377 63.4829 41.3674 64.2871C37.4231 65.897 31.9894 67.5 26 67.5C20.0106 67.5 14.5769 65.897 10.6326 64.2871C8.66226 63.4829 7.0685 62.6789 5.96895 62.077C5.55993 61.8531 5.2195 61.6573 4.95371 61.5C5.2195 61.3427 5.55993 61.1469 5.96895 60.923C7.0685 60.3211 8.66226 59.5171 10.6326 58.7129C14.5769 57.103 20.0106 55.5 26 55.5Z" stroke="#86FF68"/>
<path d="M47 5.5L47 61.5" stroke="#86FF68" stroke-width="2"/>
</g>
<defs>
<clipPath id="clip0_865_3346">
<rect width="47" height="65" fill="white" transform="translate(0 4)"/>
</clipPath>
</defs>
</svg>
